<svg xmlns="http://www.w3.org/2000/svg" viewBox="0 0 128 128">
  <title>Linux</title>
  <!-- Feet -->
  <path fill="#FCC624" d="M32 108c-8 0-16 4-18 10-1 3 2 6 8 6 12 0 22-6 26-12-5-2-11-4-16-4zm64 0c-5 0-11 2-16 4 4 6 14 12 26 12 6 0 9-3 8-6-2-6-10-10-18-10z"/>
  <!-- Body Outline / Outer Silhouette (Charcoal with subtle edge) -->
  <path fill="#24292F" stroke="#4B5563" stroke-width="1.5" d="M64 6c-18 0-26 14-26 36 0 10 3 22 2 32-3 2-14 8-18 20-3 10 1 18 12 18 12 0 20-6 30-6s18 6 30 6c11 0 15-8 12-18-4-12-15-18-18-20-1-10 2-22 2-32 0-22-8-36-26-36z"/>
  <!-- White Belly -->
  <ellipse fill="#FFFFFF" cx="64" cy="78" rx="20" ry="26"/>
  <!-- Eyes -->
  <ellipse fill="#FFFFFF" cx="56" cy="34" rx="4.5" ry="7"/>
  <ellipse fill="#FFFFFF" cx="72" cy="34" rx="4.5" ry="7"/>
  <circle fill="#0D1117" cx="57" cy="35" r="2.5"/>
  <circle fill="#0D1117" cx="71" cy="35" r="2.5"/>
  <!-- Golden Beak -->
  <path fill="#FCC624" d="M52 44c0-2 6-6 12-6s12 4 12 6c0 6-6 12-12 12s-12-6-12-12z"/>
</svg>