<svg xmlns="http://www.w3.org/2000/svg" viewBox="0 0 64 64" width="64" height="64">
  <title>MySQL</title>
  <!-- Leaping Dolphin Body -->
  <path d="M10 42c6-3 12-8 16-16 4-8 12-12 20-8 4 2 8 6 10 10-4-1-8 0-11 2-5 3-9 8-12 14-4 7-10 10-17 11 2-4 2-9-1-13l-5 0z" fill="#00758F"/>
  <!-- Dorsal Fin -->
  <path d="M30 18c2-4 6-7 10-6-1 3-3 6-6 8-1.5-1-2.8-1.5-4-2z" fill="#00758F"/>
  <!-- Solar Energy Dynamic Wave -->
  <path d="M18 48c8 4 18 4 28-2" fill="none" stroke="#F29111" stroke-width="3.5" stroke-linecap="round"/>
  <!-- Eye -->
  <circle cx="48" cy="28" r="2" fill="#FFFFFF"/>
</svg>